
<svg width="1440" height="800" viewBox="0 0 1440 800" xmlns="http://www.w3.org/2000/svg">
  <defs>
    <linearGradient id="hexGrad" x1="0%" y1="0%" x2="100%" y2="100%">
      <stop offset="0%" stop-color="#8B5CF6" stop-opacity="0.05"/>
      <stop offset="100%" stop-color="#0EA5E9" stop-opacity="0.05"/>
    </linearGradient>
    <filter id="glow">
      <feGaussianBlur stdDeviation="8" result="blur"/>
      <feComposite in="SourceGraphic" in2="blur" operator="over"/>
    </filter>
  </defs>

  <!-- Background Hexagons Pattern -->
  <g fill="url(#hexGrad)" stroke="#8B5CF6" stroke-opacity="0.1" stroke-width="1">
    <!-- Row 1 -->
    <path d="M100,50 L150,80 L150,140 L100,170 L50,140 L50,80 L100,50 Z" />
    <path d="M250,50 L300,80 L300,140 L250,170 L200,140 L200,80 L250,50 Z" />
    <path d="M400,50 L450,80 L450,140 L400,170 L350,140 L350,80 L400,50 Z" />
    <path d="M550,50 L600,80 L600,140 L550,170 L500,140 L500,80 L550,50 Z" />
    <path d="M700,50 L750,80 L750,140 L700,170 L650,140 L650,80 L700,50 Z" />
    <path d="M850,50 L900,80 L900,140 L850,170 L800,140 L800,80 L850,50 Z" />
    <path d="M1000,50 L1050,80 L1050,140 L1000,170 L950,140 L950,80 L1000,50 Z" />
    <path d="M1150,50 L1200,80 L1200,140 L1150,170 L1100,140 L1100,80 L1150,50 Z" />
    <path d="M1300,50 L1350,80 L1350,140 L1300,170 L1250,140 L1250,80 L1300,50 Z" />
    
    <!-- Row 2 -->
    <path d="M175,170 L225,200 L225,260 L175,290 L125,260 L125,200 L175,170 Z" />
    <path d="M325,170 L375,200 L375,260 L325,290 L275,260 L275,200 L325,170 Z" />
    <path d="M475,170 L525,200 L525,260 L475,290 L425,260 L425,200 L475,170 Z" />
    <path d="M625,170 L675,200 L675,260 L625,290 L575,260 L575,200 L625,170 Z" />
    <path d="M775,170 L825,200 L825,260 L775,290 L725,260 L725,200 L775,170 Z" />
    <path d="M925,170 L975,200 L975,260 L925,290 L875,260 L875,200 L925,170 Z" />
    <path d="M1075,170 L1125,200 L1125,260 L1075,290 L1025,260 L1025,200 L1075,170 Z" />
    <path d="M1225,170 L1275,200 L1275,260 L1225,290 L1175,260 L1175,200 L1225,170 Z" />
    <path d="M1375,170 L1425,200 L1425,260 L1375,290 L1325,260 L1325,200 L1375,170 Z" />
    
    <!-- Row 3 -->
    <path d="M100,290 L150,320 L150,380 L100,410 L50,380 L50,320 L100,290 Z" />
    <path d="M250,290 L300,320 L300,380 L250,410 L200,380 L200,320 L250,290 Z" />
    <path d="M400,290 L450,320 L450,380 L400,410 L350,380 L350,320 L400,290 Z" />
    <path d="M550,290 L600,320 L600,380 L550,410 L500,380 L500,320 L550,290 Z" />
    <path d="M700,290 L750,320 L750,380 L700,410 L650,380 L650,320 L700,290 Z" />
    <path d="M850,290 L900,320 L900,380 L850,410 L800,380 L800,320 L850,290 Z" />
    <path d="M1000,290 L1050,320 L1050,380 L1000,410 L950,380 L950,320 L1000,290 Z" />
    <path d="M1150,290 L1200,320 L1200,380 L1150,410 L1100,380 L1100,320 L1150,290 Z" />
    <path d="M1300,290 L1350,320 L1350,380 L1300,410 L1250,380 L1250,320 L1300,290 Z" />
    
    <!-- Row 4 -->
    <path d="M175,410 L225,440 L225,500 L175,530 L125,500 L125,440 L175,410 Z" />
    <path d="M325,410 L375,440 L375,500 L325,530 L275,500 L275,440 L325,410 Z" />
    <path d="M475,410 L525,440 L525,500 L475,530 L425,500 L425,440 L475,410 Z" />
    <path d="M625,410 L675,440 L675,500 L625,530 L575,500 L575,440 L625,410 Z" />
    <path d="M775,410 L825,440 L825,500 L775,530 L725,500 L725,440 L775,410 Z" />
    <path d="M925,410 L975,440 L975,500 L925,530 L875,500 L875,440 L925,410 Z" />
    <path d="M1075,410 L1125,440 L1125,500 L1075,530 L1025,500 L1025,440 L1075,410 Z" />
    <path d="M1225,410 L1275,440 L1275,500 L1225,530 L1175,500 L1175,440 L1225,410 Z" />
    <path d="M1375,410 L1425,440 L1425,500 L1375,530 L1325,500 L1325,440 L1375,410 Z" />

    <!-- Row 5 -->
    <path d="M100,530 L150,560 L150,620 L100,650 L50,620 L50,560 L100,530 Z" />
    <path d="M250,530 L300,560 L300,620 L250,650 L200,620 L200,560 L250,530 Z" />
    <path d="M400,530 L450,560 L450,620 L400,650 L350,620 L350,560 L400,530 Z" />
    <path d="M550,530 L600,560 L600,620 L550,650 L500,620 L500,560 L550,530 Z" />
    <path d="M700,530 L750,560 L750,620 L700,650 L650,620 L650,560 L700,530 Z" />
    <path d="M850,530 L900,560 L900,620 L850,650 L800,620 L800,560 L850,530 Z" />
    <path d="M1000,530 L1050,560 L1050,620 L1000,650 L950,620 L950,560 L1000,530 Z" />
    <path d="M1150,530 L1200,560 L1200,620 L1150,650 L1100,620 L1100,560 L1150,530 Z" />
    <path d="M1300,530 L1350,560 L1350,620 L1300,650 L1250,620 L1250,560 L1300,530 Z" />
  </g>
  
  <!-- Random Blockchain Connection Lines -->
  <g stroke="#8B5CF6" stroke-opacity="0.15" stroke-width="1.5">
    <line x1="100" y1="170" x2="175" y2="170" filter="url(#glow)" />
    <line x1="250" y1="170" x2="325" y2="170" filter="url(#glow)" />
    <line x1="400" y1="170" x2="475" y2="170" filter="url(#glow)" />
    <line x1="550" y1="290" x2="625" y2="290" filter="url(#glow)" />
    <line x1="700" y1="290" x2="775" y2="290" filter="url(#glow)" />
    <line x1="850" y1="410" x2="925" y2="410" filter="url(#glow)" />
    <line x1="1000" y1="410" x2="1075" y2="410" filter="url(#glow)" />
    <line x1="1150" y1="530" x2="1225" y2="530" filter="url(#glow)" />
    
    <line x1="100" y1="170" x2="100" y2="290" filter="url(#glow)" />
    <line x1="250" y1="170" x2="250" y2="290" filter="url(#glow)" />
    <line x1="325" y1="170" x2="325" y2="410" filter="url(#glow)" />
    <line x1="475" y1="170" x2="475" y2="410" filter="url(#glow)" />
    <line x1="625" y1="290" x2="625" y2="410" filter="url(#glow)" />
    <line x1="775" y1="290" x2="775" y2="410" filter="url(#glow)" />
    <line x1="925" y1="410" x2="925" y2="530" filter="url(#glow)" />
    <line x1="1075" y1="410" x2="1075" y2="530" filter="url(#glow)" />
    
    <line x1="175" y1="170" x2="250" y2="290" filter="url(#glow)" />
    <line x1="325" y1="170" x2="400" y2="290" filter="url(#glow)" />
    <line x1="475" y1="290" x2="550" y2="410" filter="url(#glow)" />
    <line x1="625" y1="290" x2="700" y2="410" filter="url(#glow)" />
    <line x1="775" y1="410" x2="850" y2="530" filter="url(#glow)" />
    <line x1="925" y1="410" x2="1000" y2="530" filter="url(#glow)" />
    
    <line x1="250" y1="170" x2="175" y2="290" filter="url(#glow)" />
    <line x1="400" y1="170" x2="325" y2="290" filter="url(#glow)" />
    <line x1="550" y1="290" x2="475" y2="410" filter="url(#glow)" />
    <line x1="700" y1="290" x2="625" y2="410" filter="url(#glow)" />
    <line x1="850" y1="410" x2="775" y2="530" filter="url(#glow)" />
    <line x1="1000" y1="410" x2="925" y2="530" filter="url(#glow)" />
  </g>
  
  <!-- Highlighted Blockchain Nodes -->
  <g fill="#8B5CF6" filter="url(#glow)">
    <circle cx="250" cy="170" r="3" opacity="0.6" />
    <circle cx="325" cy="170" r="3" opacity="0.6" />
    <circle cx="400" cy="290" r="3" opacity="0.6" />
    <circle cx="550" cy="290" r="3" opacity="0.6" />
    <circle cx="700" cy="410" r="3" opacity="0.6" />
    <circle cx="850" cy="410" r="3" opacity="0.6" />
    <circle cx="775" cy="530" r="3" opacity="0.6" />
    <circle cx="925" cy="530" r="3" opacity="0.6" />
  </g>
</svg>
